<svg width="320" height="100" viewBox="0 0 320 100" fill="none" xmlns="http://www.w3.org/2000/svg">
<g id="technosheen-light-theme-logo" clip-path="url(#clip0_207_4)">
<path id="technosheen" d="M19.5359 52.192H23.1839V70H30.4799V52.192H35.3279V45.904H30.4799V38.08H23.1839V45.904H19.5359V52.192ZM49.5595 64.624C46.7755 64.624 44.4235 62.896 43.7035 59.92H61.4155C61.8955 51.568 57.2395 45.328 49.3675 45.328C42.7435 45.328 36.9355 50.656 36.9355 57.952C36.9355 65.2 42.7435 70.576 49.5595 70.576C54.2155 70.576 58.1995 68.464 60.5035 64.672L55.3675 61.12C53.9755 63.28 52.3915 64.624 49.5595 64.624ZM49.4155 51.232C52.5355 51.232 54.1675 53.296 54.5035 55.36H43.9435C44.8075 52.768 46.9675 51.232 49.4155 51.232ZM77.1265 45.328C70.2145 45.328 64.2625 50.656 64.2625 57.952C64.2625 65.248 70.2145 70.576 77.1265 70.576C79.0465 70.576 80.6305 70.24 82.1665 69.616V62.512C80.9185 63.472 79.5265 64.144 77.5105 64.144C74.1985 64.144 71.2705 61.696 71.2705 57.952C71.2705 54.208 74.1985 51.76 77.5105 51.76C79.5265 51.76 80.9185 52.384 82.1185 53.392V46.288C80.6305 45.664 79.0465 45.328 77.1265 45.328ZM102.355 56.176V70H109.651V54.16C109.651 48.928 106.339 45.328 101.011 45.328C97.843 45.328 95.443 46.816 94.003 48.688V31.312H86.707V70H94.003V56.752C94.003 53.92 95.635 51.856 98.323 51.856C100.915 51.856 102.355 53.68 102.355 56.176ZM130.808 56.176V70H138.104V54.16C138.104 48.928 134.792 45.328 129.464 45.328C126.296 45.328 123.896 46.816 122.456 48.688V45.904H115.16V70H122.456V56.752C122.456 53.92 124.088 51.856 126.776 51.856C129.368 51.856 130.808 53.68 130.808 56.176ZM142.029 57.952C142.029 65.2 148.029 70.576 155.037 70.576C162.045 70.576 167.997 65.2 167.997 57.952C167.997 50.704 162.045 45.328 155.037 45.328C148.029 45.328 142.029 50.704 142.029 57.952ZM148.845 57.952C148.845 54.352 151.485 51.616 155.037 51.616C158.541 51.616 161.181 54.352 161.181 57.952C161.181 61.552 158.541 64.288 155.037 64.288C151.485 64.288 148.845 61.552 148.845 57.952ZM179.551 70.576C184.399 70.576 189.055 67.408 189.055 62.464C189.055 53.44 177.583 56.272 177.583 52.72C177.583 51.568 178.543 50.752 179.743 50.752C181.135 50.752 182.047 51.568 182.431 53.056L188.719 51.472C187.615 47.728 184.255 45.328 179.839 45.328C174.511 45.328 170.911 48.976 170.911 53.152C170.911 61.984 182.287 59.104 182.287 62.848C182.287 64.336 181.087 65.104 179.647 65.104C177.919 65.104 176.431 64 175.855 61.984L169.663 63.856C170.719 68.128 175.087 70.576 179.551 70.576ZM208.48 56.176V70H215.776V54.16C215.776 48.928 212.464 45.328 207.136 45.328C203.968 45.328 201.568 46.816 200.128 48.688V31.312H192.832V70H200.128V56.752C200.128 53.92 201.76 51.856 204.448 51.856C207.04 51.856 208.48 53.68 208.48 56.176ZM232.325 64.624C229.541 64.624 227.189 62.896 226.469 59.92H244.181C244.661 51.568 240.005 45.328 232.133 45.328C225.509 45.328 219.701 50.656 219.701 57.952C219.701 65.2 225.509 70.576 232.325 70.576C236.981 70.576 240.965 68.464 243.269 64.672L238.133 61.12C236.741 63.28 235.157 64.624 232.325 64.624ZM232.181 51.232C235.301 51.232 236.933 53.296 237.269 55.36H226.709C227.573 52.768 229.733 51.232 232.181 51.232ZM259.7 64.624C256.916 64.624 254.564 62.896 253.844 59.92H271.556C272.036 51.568 267.38 45.328 259.508 45.328C252.884 45.328 247.076 50.656 247.076 57.952C247.076 65.2 252.884 70.576 259.7 70.576C264.356 70.576 268.34 68.464 270.644 64.672L265.508 61.12C264.116 63.28 262.532 64.624 259.7 64.624ZM259.556 51.232C262.676 51.232 264.308 53.296 264.644 55.36H254.084C254.948 52.768 257.108 51.232 259.556 51.232ZM291.355 56.176V70H298.651V54.16C298.651 48.928 295.339 45.328 290.011 45.328C286.843 45.328 284.443 46.816 283.003 48.688V45.904H275.707V70H283.003V56.752C283.003 53.92 284.635 51.856 287.323 51.856C289.915 51.856 291.355 53.68 291.355 56.176Z" fill="black"/>
</g>
<defs>
<clipPath id="clip0_207_4">
<rect width="320" height="100" fill="white"/>
</clipPath>
</defs>
</svg>
